<svg xmlns="http://www.w3.org/2000/svg" version="1.1" xmlns:xlink="http://www.w3.org/1999/xlink" xmlns:svgjs="http://svgjs.com/svgjs" width="1440" height="560" preserveAspectRatio="none" viewBox="0 0 1440 560"><g mask="url(&quot;#SvgjsMask1029&quot;)" fill="none"><rect width="1440" height="560" x="0" y="0" fill="#0e2a47"></rect><path d="M279.192,235.276C310.403,236.526,342.227,225.304,358.609,198.709C375.724,170.924,374.773,135.351,357.98,107.37C341.652,80.164,310.888,67.829,279.192,66.382C244.181,64.783,203.689,68.808,186.873,99.557C170.408,129.664,190.776,164.389,210.076,192.762C226.381,216.732,250.225,234.116,279.192,235.276" fill="rgba(28, 83, 142, 0.4)" class="triangle-float2"></path><path d="M393.36475374112183 555.8750316821563L506.5260013346293 553.8997947580535 391.38951681701906 442.7137840886488z" fill="rgba(28, 83, 142, 0.4)" class="triangle-float1"></path><path d="M844.47,714.636C892.63,715.98,941.11,695.455,964.622,653.402C987.67,612.178,975.093,563.144,952.296,521.78C928.471,478.552,893.829,435.552,844.47,435.401C794.937,435.249,758.19,477.088,735.496,521.116C714.889,561.094,713.33,607.816,735.398,647.006C757.896,686.958,798.637,713.357,844.47,714.636" fill="rgba(28, 83, 142, 0.4)" class="triangle-float1"></path><path d="M1339.7725082208628 114.54795039249748L1427.9580845547841 59.44348646096955 1372.8536206232561-28.742089872951766 1284.6680442893348 26.36237405857618z" fill="rgba(28, 83, 142, 0.4)" class="triangle-float1"></path><path d="M404.55836149215634-42.72934764357508L250.19484272913633-37.33885478691657 255.58533558579484 117.02466397610344 409.94885434881485 111.63417111944493z" fill="rgba(28, 83, 142, 0.4)" class="triangle-float3"></path><path d="M1034.703,463.13C1096.418,463.674,1154.743,433.158,1186.149,380.029C1218.11,325.961,1223.207,256.07,1187.741,204.234C1155.528,157.153,1091.71,156.585,1034.703,158.681C982.599,160.597,929.06,171.532,899.991,214.815C867.515,263.171,860.035,326.199,887.811,377.399C916.787,430.81,973.941,462.594,1034.703,463.13" fill="rgba(28, 83, 142, 0.4)" class="triangle-float1"></path><path d="M30.867,544.432C52.929,544.016,75.494,538.244,87.464,519.707C100.418,499.645,102.835,473.027,89.964,452.911C77.845,433.969,53.335,430.314,30.867,431.248C10.343,432.101,-8.899,440.401,-20.291,457.495C-33.186,476.844,-41.348,501.876,-29.556,521.916C-17.873,541.771,7.834,544.867,30.867,544.432" fill="rgba(28, 83, 142, 0.4)" class="triangle-float1"></path><path d="M998.8108724083282 116.00123390788755L887.1106683084037 206.45427569263 977.563710093146 318.15447979255464 1089.2639141930706 227.70143800781216z" fill="rgba(28, 83, 142, 0.4)" class="triangle-float2"></path><path d="M1328.6370290486457 569.6564128076413L1380.3298285831816 486.9306408097266 1297.6040565852666 435.23784127519076 1245.911257050731 517.9636132731056z" fill="rgba(28, 83, 142, 0.4)" class="triangle-float2"></path><path d="M459.3148275236334 468.1414990984464L625.2690452892352 519.0517867672662 593.7199273809554 370.6248567284866z" fill="rgba(28, 83, 142, 0.4)" class="triangle-float1"></path><path d="M569.4927392565581 325.31309670126694L605.7617448820785 243.85157631340937 465.4349614875319 230.1788280690577z" fill="rgba(28, 83, 142, 0.4)" class="triangle-float2"></path><path d="M268.69415749020584 117.45950180858578L113.99476448536538 158.91107923381765 310.1457349154377 272.15889481342623z" fill="rgba(28, 83, 142, 0.4)" class="triangle-float2"></path><path d="M1037.5711510561518 327.64970487985323L962.9930674911685 394.80011293774646 1104.721559114045 402.22778844483656z" fill="rgba(28, 83, 142, 0.4)" class="triangle-float3"></path><path d="M595.857,477.146C610.884,476.789,620.431,462.679,627.491,449.409C634.008,437.16,637.858,422.913,631.184,410.749C624.291,398.186,610.183,392.105,595.857,391.755C580.814,391.388,564.957,395.931,557.408,408.947C549.839,421.998,554.099,437.835,561.508,450.977C569.084,464.415,580.434,477.512,595.857,477.146" fill="rgba(28, 83, 142, 0.4)" class="triangle-float3"></path><path d="M1506.7497108960529 511.52865119145474L1403.0170044225008 383.42942692758015 1274.917780158626 487.1621334011323 1378.6504866321782 615.2613576650069z" fill="rgba(28, 83, 142, 0.4)" class="triangle-float2"></path><path d="M1185.078525567193 451.66578929840125L1160.676317897228 380.7966323439844 1066.5736863005855 452.8345223261404z" fill="rgba(28, 83, 142, 0.4)" class="triangle-float1"></path><path d="M793.0557568517991 233.73491865562212L794.9019161156349 339.50131204504487 952.6284265678511 283.8488764545797z" fill="rgba(28, 83, 142, 0.4)" class="triangle-float1"></path><path d="M11.369821463742035 113.27840708307478L70.37830082277357 181.15989749585768 142.69629676243213 58.706433250918934z" fill="rgba(28, 83, 142, 0.4)" class="triangle-float2"></path><path d="M818.4559159424604 192.50859177050663L966.2607239727799 81.35036987219036 818.5717396791197 15.59499756057096z" fill="rgba(28, 83, 142, 0.4)" class="triangle-float1"></path><path d="M1153.827795838458 546.844671771423L1209.9173403542616 521.8719976070972 1144.4135568498712 450.224017915555z" fill="rgba(28, 83, 142, 0.4)" class="triangle-float2"></path></g><defs><mask id="SvgjsMask1029"><rect width="1440" height="560" fill="#ffffff"></rect></mask><style>
            @keyframes float1 {
                0%{transform: translate(0, 0)}
                50%{transform: translate(-10px, 0)}
                100%{transform: translate(0, 0)}
            }

            .triangle-float1 {
                animation: float1 5s infinite;
            }

            @keyframes float2 {
                0%{transform: translate(0, 0)}
                50%{transform: translate(-5px, -5px)}
                100%{transform: translate(0, 0)}
            }

            .triangle-float2 {
                animation: float2 4s infinite;
            }

            @keyframes float3 {
                0%{transform: translate(0, 0)}
                50%{transform: translate(0, -10px)}
                100%{transform: translate(0, 0)}
            }

            .triangle-float3 {
                animation: float3 6s infinite;
            }
        </style></defs></svg>